<mxfile host="app.diagrams.net" agent="Mozilla/5.0 (Windows NT 10.0; Win64; x64; rv:132.0) Gecko/20100101 Firefox/132.0" version="24.8.6">
  <diagram name="Page-1" id="DxwvmEOFzPsOIlbu-ZMV">
    <mxGraphModel dx="2199" dy="637" grid="1" gridSize="10" guides="1" tooltips="1" connect="1" arrows="1" fold="1" page="1" pageScale="1" pageWidth="827" pageHeight="1169" math="0" shadow="0">
      <root>
        <mxCell id="0" />
        <mxCell id="1" parent="0" />
        <mxCell id="n-yL8oxW99cjQOd6Av3J-1" value="&lt;font style=&quot;font-size: 18px;&quot;&gt;0&lt;/font&gt;" style="ellipse;whiteSpace=wrap;html=1;aspect=fixed;" parent="1" vertex="1">
          <mxGeometry x="29" y="490" width="60" height="60" as="geometry" />
        </mxCell>
        <mxCell id="n-yL8oxW99cjQOd6Av3J-5" value="&lt;font style=&quot;font-size: 24px;&quot;&gt;&quot;&lt;/font&gt;" style="text;html=1;align=center;verticalAlign=middle;resizable=0;points=[];autosize=1;strokeColor=none;fillColor=none;" parent="1" vertex="1">
          <mxGeometry x="99" y="487.5" width="30" height="40" as="geometry" />
        </mxCell>
        <mxCell id="n-yL8oxW99cjQOd6Av3J-11" value="" style="edgeStyle=orthogonalEdgeStyle;rounded=0;orthogonalLoop=1;jettySize=auto;html=1;" parent="1" source="n-yL8oxW99cjQOd6Av3J-6" target="n-yL8oxW99cjQOd6Av3J-10" edge="1">
          <mxGeometry relative="1" as="geometry" />
        </mxCell>
        <mxCell id="7rAIZ8-NCQGwNIWURalt-7" style="edgeStyle=orthogonalEdgeStyle;rounded=0;orthogonalLoop=1;jettySize=auto;html=1;exitX=0.5;exitY=1;exitDx=0;exitDy=0;curved=1;" edge="1" parent="1" source="n-yL8oxW99cjQOd6Av3J-6" target="n-yL8oxW99cjQOd6Av3J-21">
          <mxGeometry relative="1" as="geometry">
            <Array as="points">
              <mxPoint x="169" y="610" />
              <mxPoint x="890" y="610" />
              <mxPoint x="890" y="541" />
            </Array>
          </mxGeometry>
        </mxCell>
        <mxCell id="n-yL8oxW99cjQOd6Av3J-6" value="&lt;font style=&quot;font-size: 18px;&quot;&gt;1&lt;/font&gt;" style="ellipse;whiteSpace=wrap;html=1;aspect=fixed;" parent="1" vertex="1">
          <mxGeometry x="139" y="490" width="60" height="60" as="geometry" />
        </mxCell>
        <mxCell id="n-yL8oxW99cjQOd6Av3J-10" value="&lt;font style=&quot;font-size: 18px;&quot;&gt;2&lt;/font&gt;" style="ellipse;whiteSpace=wrap;html=1;aspect=fixed;" parent="1" vertex="1">
          <mxGeometry x="739" y="490" width="60" height="60" as="geometry" />
        </mxCell>
        <mxCell id="n-yL8oxW99cjQOd6Av3J-14" value="&lt;div&gt;&lt;span style=&quot;font-size: 18px;&quot;&gt;[&lt;/span&gt;&lt;span style=&quot;font-size: 18px;&quot;&gt;[:alnum:&lt;/span&gt;&lt;span style=&quot;font-size: 18px;&quot;&gt;]&lt;/span&gt;&lt;span style=&quot;font-size: 18px;&quot;&gt;[:blank:]]&lt;/span&gt;&lt;span style=&quot;font-size: 18px;&quot;&gt; | [&lt;/span&gt;&lt;span style=&quot;font-size: 18px;&quot;&gt;-!#$%&amp;amp;&#39;()*+,./:;&amp;lt;=&amp;gt;?@[]_`{|}~&lt;/span&gt;&lt;span style=&quot;font-size: 18px;&quot;&gt;]&lt;/span&gt;&lt;/div&gt;" style="text;html=1;align=center;verticalAlign=middle;resizable=0;points=[];autosize=1;strokeColor=none;fillColor=none;" parent="1" vertex="1">
          <mxGeometry x="269" y="480" width="420" height="40" as="geometry" />
        </mxCell>
        <mxCell id="7rAIZ8-NCQGwNIWURalt-4" style="edgeStyle=orthogonalEdgeStyle;rounded=0;orthogonalLoop=1;jettySize=auto;html=1;exitX=0.5;exitY=1;exitDx=0;exitDy=0;entryX=1;entryY=0.5;entryDx=0;entryDy=0;curved=1;" edge="1" parent="1" source="n-yL8oxW99cjQOd6Av3J-21" target="n-yL8oxW99cjQOd6Av3J-34">
          <mxGeometry relative="1" as="geometry" />
        </mxCell>
        <mxCell id="n-yL8oxW99cjQOd6Av3J-21" value="&lt;font style=&quot;font-size: 18px;&quot;&gt;4&lt;/font&gt;" style="ellipse;shape=doubleEllipse;whiteSpace=wrap;html=1;aspect=fixed;" parent="1" vertex="1">
          <mxGeometry x="909" y="485" width="65" height="65" as="geometry" />
        </mxCell>
        <mxCell id="n-yL8oxW99cjQOd6Av3J-27" value="&lt;font style=&quot;font-size: 24px;&quot;&gt;\&lt;/font&gt;" style="text;html=1;align=center;verticalAlign=middle;resizable=0;points=[];autosize=1;strokeColor=none;fillColor=none;" parent="1" vertex="1">
          <mxGeometry x="859" y="410" width="30" height="40" as="geometry" />
        </mxCell>
        <mxCell id="n-yL8oxW99cjQOd6Av3J-28" value="" style="endArrow=classic;html=1;rounded=0;exitX=1;exitY=0.5;exitDx=0;exitDy=0;entryX=0;entryY=0.5;entryDx=0;entryDy=0;" parent="1" source="n-yL8oxW99cjQOd6Av3J-1" target="n-yL8oxW99cjQOd6Av3J-6" edge="1">
          <mxGeometry width="50" height="50" relative="1" as="geometry">
            <mxPoint x="619" y="600" as="sourcePoint" />
            <mxPoint x="669" y="550" as="targetPoint" />
          </mxGeometry>
        </mxCell>
        <mxCell id="n-yL8oxW99cjQOd6Av3J-34" value="&lt;font style=&quot;font-size: 18px;&quot;&gt;Trap&lt;/font&gt;" style="ellipse;whiteSpace=wrap;html=1;aspect=fixed;" parent="1" vertex="1">
          <mxGeometry x="509" y="633" width="60" height="60" as="geometry" />
        </mxCell>
        <mxCell id="n-yL8oxW99cjQOd6Av3J-35" value="" style="curved=1;endArrow=classic;html=1;rounded=0;" parent="1" source="n-yL8oxW99cjQOd6Av3J-1" target="n-yL8oxW99cjQOd6Av3J-34" edge="1">
          <mxGeometry width="50" height="50" relative="1" as="geometry">
            <mxPoint x="55" y="583" as="sourcePoint" />
            <mxPoint x="325" y="703" as="targetPoint" />
            <Array as="points">
              <mxPoint x="75" y="653" />
            </Array>
          </mxGeometry>
        </mxCell>
        <mxCell id="n-yL8oxW99cjQOd6Av3J-45" value="&lt;span style=&quot;font-size: 18px;&quot;&gt;[[:alnum:][:blank:]] | [&lt;/span&gt;&lt;span style=&quot;font-size: 18px;&quot;&gt;-!#$%&amp;amp;&#39;()*+,./:;&amp;lt;=&amp;gt;?@[\\\]_`{|}~&lt;/span&gt;&lt;span style=&quot;font-size: 18px;&quot;&gt;]&lt;/span&gt;" style="text;html=1;align=center;verticalAlign=middle;resizable=0;points=[];autosize=1;strokeColor=none;fillColor=none;rotation=10;" parent="1" vertex="1">
          <mxGeometry x="-60" y="643" width="440" height="40" as="geometry" />
        </mxCell>
        <mxCell id="n-yL8oxW99cjQOd6Av3J-49" value="&lt;span style=&quot;font-size: 18px;&quot;&gt;[&lt;/span&gt;&lt;span style=&quot;font-size: 18px;&quot;&gt;[:alnum:&lt;/span&gt;&lt;span style=&quot;font-size: 18px;&quot;&gt;]&lt;/span&gt;&lt;span style=&quot;font-size: 18px;&quot;&gt;[:punct:][:blank:]]&lt;/span&gt;" style="text;html=1;align=center;verticalAlign=middle;resizable=0;points=[];autosize=1;strokeColor=none;fillColor=none;" parent="1" vertex="1">
          <mxGeometry x="529" y="400" width="230" height="40" as="geometry" />
        </mxCell>
        <mxCell id="n-yL8oxW99cjQOd6Av3J-51" value="" style="curved=1;endArrow=classic;html=1;rounded=0;elbow=vertical;exitX=0;exitY=0.5;exitDx=0;exitDy=0;entryX=0.5;entryY=0;entryDx=0;entryDy=0;" parent="1" source="n-yL8oxW99cjQOd6Av3J-54" target="n-yL8oxW99cjQOd6Av3J-10" edge="1">
          <mxGeometry width="50" height="50" relative="1" as="geometry">
            <mxPoint x="809" y="460" as="sourcePoint" />
            <mxPoint x="859" y="410" as="targetPoint" />
            <Array as="points">
              <mxPoint x="739" y="390" />
            </Array>
          </mxGeometry>
        </mxCell>
        <mxCell id="n-yL8oxW99cjQOd6Av3J-52" value="" style="endArrow=classic;html=1;rounded=0;elbow=vertical;entryX=0;entryY=0.5;entryDx=0;entryDy=0;" parent="1" target="n-yL8oxW99cjQOd6Av3J-1" edge="1">
          <mxGeometry width="50" height="50" relative="1" as="geometry">
            <mxPoint x="-31" y="520" as="sourcePoint" />
            <mxPoint x="-81" y="487.5" as="targetPoint" />
          </mxGeometry>
        </mxCell>
        <mxCell id="n-yL8oxW99cjQOd6Av3J-54" value="&lt;font style=&quot;font-size: 18px;&quot;&gt;3&lt;/font&gt;" style="ellipse;whiteSpace=wrap;html=1;aspect=fixed;" parent="1" vertex="1">
          <mxGeometry x="799" y="330" width="60" height="60" as="geometry" />
        </mxCell>
        <mxCell id="n-yL8oxW99cjQOd6Av3J-61" value="" style="curved=1;endArrow=classic;html=1;rounded=0;elbow=vertical;exitX=0.5;exitY=0;exitDx=0;exitDy=0;entryX=0;entryY=0;entryDx=0;entryDy=0;" parent="1" source="n-yL8oxW99cjQOd6Av3J-6" target="n-yL8oxW99cjQOd6Av3J-54" edge="1">
          <mxGeometry width="50" height="50" relative="1" as="geometry">
            <mxPoint x="599" y="620" as="sourcePoint" />
            <mxPoint x="649" y="570" as="targetPoint" />
            <Array as="points">
              <mxPoint x="310" y="310" />
            </Array>
          </mxGeometry>
        </mxCell>
        <mxCell id="n-yL8oxW99cjQOd6Av3J-62" value="&lt;font style=&quot;font-size: 24px;&quot;&gt;\&lt;/font&gt;" style="text;html=1;align=center;verticalAlign=middle;resizable=0;points=[];autosize=1;strokeColor=none;fillColor=none;" parent="1" vertex="1">
          <mxGeometry x="479" y="300" width="30" height="40" as="geometry" />
        </mxCell>
        <mxCell id="n-yL8oxW99cjQOd6Av3J-65" value="&lt;font style=&quot;font-size: 24px;&quot;&gt;&quot;&lt;/font&gt;" style="text;html=1;align=center;verticalAlign=middle;resizable=0;points=[];autosize=1;strokeColor=none;fillColor=none;" parent="1" vertex="1">
          <mxGeometry x="846" y="487.5" width="30" height="40" as="geometry" />
        </mxCell>
        <mxCell id="n-yL8oxW99cjQOd6Av3J-79" value="" style="curved=1;endArrow=classic;html=1;rounded=0;elbow=vertical;entryX=1;entryY=1;entryDx=0;entryDy=0;exitX=1;exitY=0;exitDx=0;exitDy=0;" parent="1" source="n-yL8oxW99cjQOd6Av3J-10" target="n-yL8oxW99cjQOd6Av3J-54" edge="1">
          <mxGeometry width="50" height="50" relative="1" as="geometry">
            <mxPoint x="899" y="660" as="sourcePoint" />
            <mxPoint x="949" y="610" as="targetPoint" />
            <Array as="points">
              <mxPoint x="879" y="450" />
            </Array>
          </mxGeometry>
        </mxCell>
        <mxCell id="n-yL8oxW99cjQOd6Av3J-83" value="" style="endArrow=classic;html=1;rounded=0;elbow=vertical;entryX=0;entryY=0.5;entryDx=0;entryDy=0;exitX=1;exitY=0.5;exitDx=0;exitDy=0;" parent="1" source="n-yL8oxW99cjQOd6Av3J-10" target="n-yL8oxW99cjQOd6Av3J-21" edge="1">
          <mxGeometry width="50" height="50" relative="1" as="geometry">
            <mxPoint x="819" y="590" as="sourcePoint" />
            <mxPoint x="869" y="540" as="targetPoint" />
          </mxGeometry>
        </mxCell>
        <mxCell id="n-yL8oxW99cjQOd6Av3J-86" value="&lt;font style=&quot;font-size: 24px;&quot;&gt;&quot;&lt;/font&gt;" style="text;html=1;align=center;verticalAlign=middle;resizable=0;points=[];autosize=1;strokeColor=none;fillColor=none;" parent="1" vertex="1">
          <mxGeometry x="524" y="580" width="30" height="40" as="geometry" />
        </mxCell>
        <mxCell id="7rAIZ8-NCQGwNIWURalt-1" value="start" style="text;html=1;align=center;verticalAlign=middle;resizable=0;points=[];autosize=1;strokeColor=none;fillColor=none;" vertex="1" parent="1">
          <mxGeometry x="-21" y="490" width="50" height="30" as="geometry" />
        </mxCell>
        <mxCell id="7rAIZ8-NCQGwNIWURalt-3" value="&lt;span style=&quot;font-size: 18px;&quot;&gt;[&lt;/span&gt;&lt;span style=&quot;font-size: 18px;&quot;&gt;[:alnum:&lt;/span&gt;&lt;span style=&quot;font-size: 18px;&quot;&gt;]&lt;/span&gt;&lt;span style=&quot;font-size: 18px;&quot;&gt;[:punct:][:blank:]]&lt;/span&gt;" style="text;html=1;align=center;verticalAlign=middle;resizable=0;points=[];autosize=1;strokeColor=none;fillColor=none;rotation=-10;" vertex="1" parent="1">
          <mxGeometry x="714" y="660" width="230" height="40" as="geometry" />
        </mxCell>
      </root>
    </mxGraphModel>
  </diagram>
</mxfile>
